<svg height="512pt" viewBox="-53 0 512 512" width="512pt" xmlns="http://www.w3.org/2000/svg"><path d="m109.125 404.59375c-10.523438 0-19.085938-8.589844-19.085938-19.148438 0-10.554687 8.5625-19.144531 19.085938-19.144531s19.089844 8.589844 19.089844 19.144531c-.003906 10.558594-8.566406 19.148438-19.089844 19.148438zm0 0"/><path d="m109.125 276.148438c-10.523438 0-19.085938-8.589844-19.085938-19.144532 0-10.558594 8.5625-19.144531 19.085938-19.144531s19.089844 8.585937 19.089844 19.144531c-.003906 10.554688-8.566406 19.144532-19.089844 19.144532zm0 0"/><path d="m109.125 145.699219c-10.523438 0-19.085938-8.589844-19.085938-19.144531 0-10.558594 8.5625-19.148438 19.085938-19.148438s19.089844 8.589844 19.089844 19.148438c-.003906 10.554687-8.566406 19.144531-19.089844 19.144531zm0 0"/><path d="m297.414062 404.59375c-10.527343 0-19.089843-8.589844-19.089843-19.148438 0-10.554687 8.5625-19.144531 19.089843-19.144531 10.523438 0 19.085938 8.589844 19.085938 19.144531 0 10.558594-8.5625 19.148438-19.085938 19.148438zm0 0"/><path d="m297.414062 276.148438c-10.527343 0-19.089843-8.589844-19.089843-19.144532 0-10.558594 8.5625-19.144531 19.089843-19.144531 10.523438 0 19.085938 8.585937 19.085938 19.144531 0 10.554688-8.5625 19.144532-19.085938 19.144532zm0 0"/><path d="m297.414062 145.699219c-10.527343 0-19.089843-8.589844-19.089843-19.144531 0-10.558594 8.5625-19.148438 19.089843-19.148438 10.523438 0 19.085938 8.589844 19.085938 19.148438 0 10.554687-8.5625 19.144531-19.085938 19.144531zm0 0"/><path d="m355.839844 0h-305.144532c-27.953124 0-50.695312 22.8125-50.695312 50.851562v410.296876c0 28.039062 22.742188 50.851562 50.699219 50.851562h305.140625c27.957031 0 50.699218-22.8125 50.699218-50.851562v-410.296876c0-28.039062-22.742187-50.851562-50.699218-50.851562zm-246.714844 434.695312c-27.074219 0-49.101562-22.09375-49.101562-49.25s22.027343-49.25 49.101562-49.25 49.101562 22.09375 49.101562 49.25-22.027343 49.25-49.101562 49.25zm0-128.441406c-27.074219 0-49.101562-22.09375-49.101562-49.25s22.027343-49.25 49.101562-49.25 49.101562 22.09375 49.101562 49.25-22.027343 49.25-49.101562 49.25zm0-130.449218c-27.074219 0-49.101562-22.09375-49.101562-49.25s22.027343-49.25 49.101562-49.25 49.101562 22.09375 49.101562 49.25-22.027343 49.25-49.101562 49.25zm109.152344 258.167968c0 8.3125-6.71875 15.054688-15.007813 15.054688-8.289062 0-15.007812-6.738282-15.007812-15.054688v-355.945312c0-8.3125 6.71875-15.054688 15.007812-15.054688 8.289063 0 15.007813 6.738282 15.007813 15.054688zm79.136718.722656c-27.074218 0-49.101562-22.09375-49.101562-49.25s22.027344-49.25 49.101562-49.25c27.070313 0 49.097657 22.09375 49.097657 49.25s-22.023438 49.25-49.097657 49.25zm0-128.441406c-27.074218 0-49.101562-22.09375-49.101562-49.25s22.027344-49.25 49.101562-49.25c27.070313 0 49.097657 22.09375 49.097657 49.25s-22.023438 49.25-49.097657 49.25zm0-130.449218c-27.074218 0-49.101562-22.09375-49.101562-49.25s22.027344-49.25 49.101562-49.25c27.070313 0 49.097657 22.09375 49.097657 49.25s-22.023438 49.25-49.097657 49.25zm0 0"/></svg>